<svg width="280" height="98" viewBox="0 0 280 98" fill="none" xmlns="http://www.w3.org/2000/svg">
<path d="M233.58 68.5098L241.922 64.668L271.15 37.7481L266.978 33.9063L237.751 60.8262L233.58 68.5098ZM227.405 82.1544C225.342 78.1485 223.115 76.0977 218.766 74.1973L225.223 57.8184L233.565 53.1426L258.621 30.0645H246.093L221.052 53.1426L208.524 91.588L250.264 80.0489L275.321 56.9844V45.4454L250.264 68.5098L245.188 76.2071L227.405 82.1544Z" fill="black"/>
<path d="M0.864 14.92H24.96V19.576H23.952C23.952 17.848 23.632 16.84 22.992 16.552H15.12V41.032C15.408 41.672 16.416 41.992 18.144 41.992V43H7.68V41.992C9.408 41.992 10.416 41.672 10.704 41.032V16.552H2.832C2.192 16.84 1.872 17.848 1.872 19.576H0.864V14.92ZM26.8361 43V41.992C28.5641 41.992 29.5721 41.672 29.8601 41.032V16.168C27.8761 16.008 26.8681 15.928 26.8361 15.928V14.824C27.4441 14.824 28.6281 14.488 30.3881 13.816C32.1801 13.112 33.4441 12.76 34.1801 12.76V23.608C35.9081 22.136 37.8121 21.4 39.8921 21.4C42.9321 21.4 45.0921 21.896 46.3721 22.888C47.6841 23.88 48.3401 25.592 48.3401 28.024V41.032C48.6281 41.672 49.6361 41.992 51.3641 41.992V43H40.9961V41.992C42.7241 41.992 43.7321 41.672 44.0201 41.032V27.688C44.0201 24.584 42.5481 23.032 39.6041 23.032C37.5881 23.032 35.7801 23.736 34.1801 25.144V41.032C34.4681 41.672 35.4761 41.992 37.2041 41.992V43H26.8361ZM58.4633 31.432C58.4953 34.12 59.2633 36.504 60.7673 38.584C62.3033 40.632 64.0153 41.656 65.9033 41.656C68.6873 41.656 70.9273 40.6 72.6233 38.488L73.7753 39.064C72.8473 40.6 71.6313 41.72 70.1273 42.424C68.6553 43.128 66.7033 43.48 64.2713 43.48C63.0553 43.48 61.8873 43.304 60.7673 42.952C59.6473 42.568 58.5433 41.96 57.4553 41.128C56.3673 40.264 55.5033 39 54.8633 37.336C54.2233 35.672 53.9033 33.688 53.9033 31.384C53.9033 28.568 54.7673 26.2 56.4953 24.28C58.2553 22.36 60.6873 21.4 63.7913 21.4C67.1833 21.4 69.7113 22.36 71.3753 24.28C73.0393 26.168 73.8713 28.552 73.8713 31.432H58.4633ZM58.5113 29.944H69.1673C68.9753 27.64 68.4793 25.88 67.6793 24.664C66.9113 23.448 65.5513 22.84 63.5993 22.84C62.4793 22.84 61.3913 23.496 60.3353 24.808C59.3113 26.12 58.7033 27.832 58.5113 29.944Z" fill="black"/>
<path d="M42.456 72.08V84.368H46.536C51.016 84.368 53.256 82.192 53.256 77.84C53.256 76.336 52.696 75.008 51.576 73.856C50.456 72.672 48.584 72.08 45.96 72.08H42.456ZM42.456 59.552V70.688H44.424C48.904 70.688 51.144 68.656 51.144 64.592C51.144 61.232 48.712 59.552 43.848 59.552H42.456ZM35.016 86V84.992C36.744 84.992 37.752 84.672 38.04 84.032V59.888C37.752 59.248 36.744 58.928 35.016 58.928V57.92H43.848C47.848 57.92 50.856 58.576 52.872 59.888C54.92 61.2 55.944 62.752 55.944 64.544C55.944 67.808 54.248 70.016 50.856 71.168C53.256 71.712 55.048 72.608 56.232 73.856C57.448 75.072 58.056 76.384 58.056 77.792C58.056 80.224 57.08 82.208 55.128 83.744C53.208 85.248 50.344 86 46.536 86H35.016ZM60.3518 86V84.992C62.0798 84.992 63.0878 84.672 63.3758 84.032V59.168C61.3918 59.008 60.3838 58.928 60.3518 58.928V57.824C60.9598 57.824 62.1438 57.488 63.9038 56.816C65.6958 56.112 66.9598 55.76 67.6958 55.76V84.032C67.9838 84.672 68.9918 84.992 70.7198 84.992V86H60.3518ZM78.0113 74.096C78.0113 77.744 78.6993 80.48 80.0753 82.304C81.4833 84.128 83.2753 85.04 85.4513 85.04C87.1793 85.04 88.5713 84.272 89.6273 82.736C90.6833 81.168 91.2113 79.168 91.2113 76.736C91.2113 69.504 88.6993 65.888 83.6753 65.888C81.9793 65.888 80.6033 66.704 79.5473 68.336C78.5233 69.936 78.0113 71.856 78.0113 74.096ZM84.8273 86.48C81.2433 86.48 78.4433 85.44 76.4273 83.36C74.4113 81.248 73.4033 78.48 73.4033 75.056C73.4033 71.952 74.3153 69.408 76.1393 67.424C77.9633 65.408 80.7473 64.4 84.4913 64.4C88.2673 64.4 91.0993 65.408 92.9873 67.424C94.8753 69.408 95.8193 72.144 95.8193 75.632C95.8193 78.736 94.9073 81.328 93.0833 83.408C91.2913 85.456 88.5393 86.48 84.8273 86.48ZM119.384 64.4V84.608C119.384 87.904 118.584 90.56 116.984 92.576C115.416 94.592 113.112 95.6 110.072 95.6C107.352 95.6 105.16 95.136 103.496 94.208C101.864 93.28 101.048 92.304 101.048 91.28C101.048 90.544 101.24 89.952 101.624 89.504C102.008 89.088 102.504 88.88 103.112 88.88C103.688 88.88 104.184 89.024 104.6 89.312C105.048 89.6 105.272 90.016 105.272 90.56C105.272 91.584 104.872 92.256 104.072 92.576C104.936 93.44 106.776 93.872 109.592 93.872C112.888 93.872 114.696 90.928 115.016 85.04C113.544 86 111.656 86.48 109.352 86.48C108.296 86.48 107.24 86.32 106.184 86C105.16 85.648 104.12 85.088 103.064 84.32C102.04 83.552 101.192 82.416 100.52 80.912C99.8795 79.376 99.5595 77.584 99.5595 75.536C99.5595 71.952 100.552 69.2 102.536 67.28C104.552 65.36 107.176 64.4 110.408 64.4C112.424 64.4 114.184 64.912 115.688 65.936C117.32 64.912 118.552 64.4 119.384 64.4ZM115.064 83.456V82.88V67.04C113.912 66.368 112.456 66.032 110.696 66.032C108.936 66.032 107.4 66.88 106.088 68.576C104.776 70.24 104.12 72.56 104.12 75.536C104.12 78.352 104.648 80.608 105.704 82.304C106.76 84 108.136 84.848 109.832 84.848C111.944 84.848 113.688 84.384 115.064 83.456ZM144.321 64.4V84.608C144.321 87.904 143.521 90.56 141.921 92.576C140.353 94.592 138.049 95.6 135.009 95.6C132.289 95.6 130.097 95.136 128.433 94.208C126.801 93.28 125.985 92.304 125.985 91.28C125.985 90.544 126.177 89.952 126.561 89.504C126.945 89.088 127.441 88.88 128.049 88.88C128.625 88.88 129.121 89.024 129.537 89.312C129.985 89.6 130.209 90.016 130.209 90.56C130.209 91.584 129.809 92.256 129.009 92.576C129.873 93.44 131.713 93.872 134.529 93.872C137.825 93.872 139.633 90.928 139.953 85.04C138.481 86 136.593 86.48 134.289 86.48C133.233 86.48 132.177 86.32 131.121 86C130.097 85.648 129.057 85.088 128.001 84.32C126.977 83.552 126.129 82.416 125.457 80.912C124.817 79.376 124.497 77.584 124.497 75.536C124.497 71.952 125.489 69.2 127.473 67.28C129.489 65.36 132.113 64.4 135.345 64.4C137.361 64.4 139.121 64.912 140.625 65.936C142.257 64.912 143.489 64.4 144.321 64.4ZM140.001 83.456V82.88V67.04C138.849 66.368 137.393 66.032 135.633 66.032C133.873 66.032 132.337 66.88 131.025 68.576C129.713 70.24 129.057 72.56 129.057 75.536C129.057 78.352 129.585 80.608 130.641 82.304C131.697 84 133.073 84.848 134.769 84.848C136.881 84.848 138.625 84.384 140.001 83.456ZM153.995 74.432C154.027 77.12 154.795 79.504 156.299 81.584C157.835 83.632 159.547 84.656 161.435 84.656C164.219 84.656 166.459 83.6 168.155 81.488L169.307 82.064C168.379 83.6 167.163 84.72 165.659 85.424C164.187 86.128 162.235 86.48 159.803 86.48C158.587 86.48 157.419 86.304 156.299 85.952C155.179 85.568 154.075 84.96 152.987 84.128C151.899 83.264 151.035 82 150.395 80.336C149.755 78.672 149.435 76.688 149.435 74.384C149.435 71.568 150.299 69.2 152.027 67.28C153.787 65.36 156.219 64.4 159.323 64.4C162.715 64.4 165.243 65.36 166.907 67.28C168.571 69.168 169.403 71.552 169.403 74.432H153.995ZM154.043 72.944H164.699C164.507 70.64 164.011 68.88 163.211 67.664C162.443 66.448 161.083 65.84 159.131 65.84C158.011 65.84 156.923 66.496 155.867 67.808C154.843 69.12 154.235 70.832 154.043 72.944ZM172.722 86V84.992C174.45 84.992 175.458 84.672 175.746 84.032V67.808C173.762 67.648 172.754 67.568 172.722 67.568V66.464C173.33 66.464 174.514 66.128 176.274 65.456C178.066 64.752 179.33 64.4 180.066 64.4V66.512C181.666 65.104 183.25 64.4 184.818 64.4C186.258 64.4 187.458 64.672 188.418 65.216C189.41 65.76 189.906 66.368 189.906 67.04C189.906 68.192 189.266 68.768 187.986 68.768C187.314 68.768 186.706 68.32 186.162 67.424C185.618 66.496 184.994 66.032 184.29 66.032C183.042 66.032 181.634 66.72 180.066 68.096V84.032C180.354 84.672 181.362 84.992 183.09 84.992V86H172.722Z" fill="black"/>
</svg>
